<?xml version="1.0" encoding="iso-8859-1"?>
<!-- Generator: Adobe Illustrator 19.0.0, SVG Export Plug-In . SVG Version: 6.00 Build 0)  -->
<svg version="1.1" id="Capa_1" xmlns="http://www.w3.org/2000/svg" xmlns:xlink="http://www.w3.org/1999/xlink" x="0px" y="0px"
	 viewBox="0 0 512 512" style="enable-background:new 0 0 512 512;" xml:space="preserve">
<g>
	<g>
		<path d="M263.821,0c-24.814,0-45,21.186-45,46c0,24.814,20.185,45,45,45c24.814,0,45-20.186,45-45
			C308.821,21.186,288.635,0,263.821,0z"/>
	</g>
</g>
<g>
	<g>
		<path d="M338.176,166h-47.578l-51.226-51.211c-14.562-14.564-38.917-10.375-48.032,7.793l-60,120
			c-6.753,13.491-2.358,30,10.195,38.379l70.928,47.285l-37.749,84.276c-5.272,15.784,3.334,32.737,18.999,37.939
			c15.56,5.237,32.648-3.122,37.925-18.97l45-106c4.263-12.803-0.601-26.968-11.821-34.453l-67.969-45.322l29.561-59.063
			l30.557,30.557c5.669,5.669,13.198,8.789,21.211,8.789h60c16.538,0,30-13.462,30-30C368.177,179.461,354.714,166,338.176,166z"/>
	</g>
</g>
<g>
	<g>
		<path d="M128.82,106c-4.644,0-9.287,1.099-13.418,3.164l-60,30c-14.866,7.418-20.83,25.461-13.418,40.254
			c7.506,15.031,25.614,20.762,40.255,13.418l53.915-26.964c4.916-9.836,25.228-50.962,30.441-59.872H128.82z"/>
	</g>
</g>
<g>
	<g>
		<path d="M124.895,305.922c-6.193-4.133-11.202-9.362-15.306-15.137l-80.261,26.754c-15.664,5.23-24.221,22.171-18.954,37.968
			c5.312,15.992,22.566,24.152,37.939,18.955l90-30c9.558-3.204,14.383-9.122,18.466-17.289L124.895,305.922z"/>
	</g>
</g>
<g>
	<g>
		<path d="M500.656,157.679c-4.6-6.9-13.916-8.745-20.801-4.16l-90,60c-6.899,4.6-8.76,13.901-4.16,20.801
			c4.525,6.797,13.792,8.806,20.801,4.16l24.73-16.487L385.855,452H53.176c-16.569,0-30,13.431-30,30c0,16.567,13.431,30,30,30h390
			c16.569,0,30-13.433,30-30c0-16.569-13.431-30-30-30h-26.735l50.026-253.501l30.029-20.019
			C503.395,173.88,505.256,164.579,500.656,157.679z"/>
	</g>
</g>
<g>
</g>
<g>
</g>
<g>
</g>
<g>
</g>
<g>
</g>
<g>
</g>
<g>
</g>
<g>
</g>
<g>
</g>
<g>
</g>
<g>
</g>
<g>
</g>
<g>
</g>
<g>
</g>
<g>
</g>
</svg>
