<?xml version="1.0" encoding="iso-8859-1"?>
<!-- Generator: Adobe Illustrator 19.0.0, SVG Export Plug-In . SVG Version: 6.00 Build 0)  -->
<svg version="1.1" id="Capa_1" xmlns="http://www.w3.org/2000/svg" xmlns:xlink="http://www.w3.org/1999/xlink" x="0px" y="0px"
	 viewBox="0 0 512 512" style="enable-background:new 0 0 512 512;" xml:space="preserve">
<g>
	<g>
		<g>
			<path d="M418.006,217.028V109.854c14.707-3.798,25.6-17.175,25.6-33.054c0-18.199-14.31-33.11-32.271-34.081l6.503-32.514
				c0.503-2.509-0.145-5.103-1.766-7.083C414.45,1.143,412.027,0,409.475,0h-102.4c-2.56,0-4.975,1.143-6.605,3.123
				c-1.613,1.98-2.261,4.574-1.766,7.083l6.503,32.514c-17.96,0.972-32.267,15.882-32.267,34.08c0,15.879,10.893,29.256,25.6,33.054
				v107.175c-16.17,6.846-30.776,16.351-43.4,27.861l0.362-5.555c1.297-27.068-8.294-52.779-26.999-72.388
				c-17.651-18.513-41.122-29.172-66.496-30.307v-17.173c4.719,0,8.533-3.823,8.533-8.533V42.667c0-14.114-11.486-25.6-25.6-25.6
				h-34.133c-14.114,0-25.6,11.486-25.6,25.6v68.267c0,4.71,3.814,8.533,8.533,8.533v17.173
				c-25.374,1.135-48.845,11.794-66.505,30.307c-18.697,19.61-28.288,45.321-26.991,72.542l15.155,231.876
				C16.483,494.148,35.205,512,58.023,512h139.699c22.818,0,41.54-17.852,42.615-40.491l0.897-13.756
				C269.432,490.918,311.434,512,358.273,512c84.693,0,153.6-68.907,153.6-153.6C511.873,296.969,474.386,240.896,418.006,217.028z
				 M399.064,17.067l-5.12,25.6h-71.347l-5.12-25.6H399.064z M290.006,76.8c0-9.412,7.654-17.067,17.067-17.067h8.536h85.333h8.531
				c9.412,0,17.067,7.654,17.067,17.067c0,9.412-7.654,17.067-17.067,17.067h-102.4C297.66,93.867,290.006,86.212,290.006,76.8z
				 M102.273,42.667c0-4.702,3.823-8.533,8.533-8.533h34.133c4.71,0,8.533,3.831,8.533,8.533V102.4h-51.2V42.667z M144.939,119.467
				v17.067h-34.133v-17.067H144.939z M223.297,470.554c-0.648,13.67-11.887,24.38-25.574,24.38H58.023
				c-13.696,0-24.926-10.709-25.583-24.533L17.285,238.524c-1.067-22.357,6.861-43.597,22.306-59.802
				C55.036,162.517,75.883,153.6,98.266,153.6h4.006h51.2h4.006c22.383,0,43.23,8.917,58.675,25.122
				c15.445,16.205,23.364,37.444,22.306,59.648l-1.728,26.516c-20.279,26.338-32.06,59.082-32.06,93.514
				c0,28.153,7.621,54.556,20.898,77.269L223.297,470.554z M358.273,494.933c-49.006,0-92.06-25.962-116.149-64.848
				c-0.323-0.761-0.753-1.467-1.273-2.099c-12.131-20.391-19.111-44.188-19.111-69.587c0-56.354,35.507-107.639,88.354-127.616
				c3.311-1.254,5.513-4.429,5.513-7.979V110.933h85.333v111.872c0,3.55,2.202,6.724,5.513,7.979
				c52.847,19.977,88.354,71.262,88.354,127.616C494.806,433.681,433.554,494.933,358.273,494.933z"/>
			<path d="M127.873,196.267c-33.493,0-59.733,37.487-59.733,85.333c0,47.846,26.24,85.333,59.733,85.333
				s59.733-37.487,59.733-85.333C187.606,233.754,161.366,196.267,127.873,196.267z M127.873,349.867
				c-23.125,0-42.667-31.266-42.667-68.267c0-37.001,19.541-68.267,42.667-68.267s42.667,31.266,42.667,68.267
				C170.539,318.601,150.998,349.867,127.873,349.867z"/>
			<path d="M435.073,273.067c0-4.71-3.814-8.533-8.533-8.533c-29.7,0-55.495,16.958-68.267,41.685
				c-12.772-24.728-38.567-41.685-68.267-41.685c-4.719,0-8.533,3.823-8.533,8.533c0,39.458,29.919,72.054,68.267,76.315v29.089
				c-14.09-17.429-35.626-28.604-59.733-28.604c-4.719,0-8.533,3.823-8.533,8.533c0,39.458,29.919,72.054,68.267,76.315V460.8
				c0,4.71,3.814,8.533,8.533,8.533s8.533-3.823,8.533-8.533v-26.086c38.347-4.26,68.267-36.857,68.267-76.315
				c0-4.71-3.814-8.533-8.533-8.533c-24.108,0-45.643,11.175-59.733,28.604v-29.089
				C405.153,345.121,435.073,312.524,435.073,273.067z M417.289,282.317c-3.985,25.549-24.218,45.781-49.766,49.766
				C371.508,306.534,391.74,286.302,417.289,282.317z M299.256,282.317c25.549,3.985,45.781,24.218,49.766,49.766
				C323.474,328.098,303.241,307.866,299.256,282.317z M299.256,367.65c25.549,3.985,45.781,24.218,49.766,49.766
				C323.474,413.432,303.241,393.199,299.256,367.65z M417.289,367.65c-3.985,25.549-24.218,45.781-49.766,49.766
				C371.508,391.868,391.74,371.635,417.289,367.65z"/>
			<path d="M179.073,384h-102.4c-4.719,0-8.533,3.823-8.533,8.533c0,4.71,3.814,8.533,8.533,8.533h102.4
				c4.719,0,8.533-3.823,8.533-8.533C187.606,387.823,183.791,384,179.073,384z"/>
			<path d="M179.073,418.133h-102.4c-4.719,0-8.533,3.823-8.533,8.533s3.814,8.533,8.533,8.533h102.4
				c4.719,0,8.533-3.823,8.533-8.533S183.791,418.133,179.073,418.133z"/>
		</g>
	</g>
</g>
<g>
</g>
<g>
</g>
<g>
</g>
<g>
</g>
<g>
</g>
<g>
</g>
<g>
</g>
<g>
</g>
<g>
</g>
<g>
</g>
<g>
</g>
<g>
</g>
<g>
</g>
<g>
</g>
<g>
</g>
</svg>
